<?xml version="1.0" encoding="UTF-8"?>
<svg id="Camada_2" data-name="Camada 2" xmlns="http://www.w3.org/2000/svg" viewBox="0 0 1877.76 208.41">
  <defs>
    <style>
      .cls-1 {
        fill: #907cdf;
      }
    </style>
  </defs>
  <g id="Camada_1-2" data-name="Camada 1">
    <g>
      <path class="cls-1" d="M94.08,167.08L58.99.87h-4.73L14.43,151.36c-5.72,21.25-11.7,43.37-14.43,52.69h20.16c1.99-11.35,5.48-25.32,9.71-42.5l25.89-106.53,30.11,151.65h5.23L168.24,55.3l-9.46,107.41c-1.5,20.38-2.99,32.02-4.23,41.33h21.65c-.25-13.68-.25-25.62,1.24-46.28L187.41.87h-5.47l-87.86,166.2Z"/>
      <path class="cls-1" d="M277.5.87h-3.98l-57.24,158.93c-5.72,16.01-11.7,31.73-17.42,44.24h15.93c1.74-7.57,5.72-19.5,11.95-36.97l14.19-40.46,4.48-12.52,29.37-84.12,29.37,84.12,4.48,12.52,14.68,40.75c5.48,15.14,9.71,27.36,12.44,36.67h17.17c-5.48-11.94-11.95-28.23-17.92-44.24L277.5.87Z"/>
      <path class="cls-1" d="M459.17,61.13c0-32.6-19.66-56.47-56-56.47h-28.62c.5,8.73.99,32.31.99,52.1v97.51c0,19.79-.5,40.75-.99,49.77h14.68c-.75-9.02-.75-29.98-.75-49.77v-35.8h15.93c3.23,0,6.22-.29,9.46-.88,16.43,30.85,36.59,62.87,51.77,86.45h18.67c-18.67-21.25-41.07-62.87-58.74-89.36,17.17-6.11,33.6-22.7,33.6-53.56ZM405.66,106.53h-17.17V16.88h14.19c29.12,0,43.06,21.25,43.06,44.53,0,27.36-17.17,45.12-40.07,45.12Z"/>
      <path class="cls-1" d="M515.92,191.24V56.76c0-20.08.5-43.37.74-52.1h-14.69c.5,8.73.75,32.02.75,52.1v95.18c0,13.1-.25,36.1-.75,52.1h45.8c17.17,0,31.36.58,38.82,1.17v-15.14c-7.47.58-21.65,1.17-38.82,1.17h-31.86Z"/>
      <path class="cls-1" d="M621.19,191.24v-88.49h21.9c16.92,0,30.11.29,37.83.87v-14.55c-7.72.58-20.91.87-37.83.87h-21.9V17.17h21.4c17.17,0,34.1.29,41.81,1.17V3.78c-7.71.58-24.64.88-41.81.88h-35.59c.5,8.73.99,31.73.99,51.81v95.47c0,13.1-.5,36.1-.99,52.1h37.58c17.17,0,34.35.29,41.81.87v-14.55c-7.47.58-24.64.87-41.81.87h-23.39Z"/>
      <path class="cls-1" d="M848.67,4.66h-14.19c.5,12.22.74,35.51.74,52.1v114.39l-99.55-144.37c-8.46-11.94-12.19-17.17-18.17-26.78h-3.24c.5,15.72.75,38.42.75,55.89v105.95c0,15.43-.25,34.06-.75,42.21h14.19c-.5-8.15-1-26.78-1-41.91l.5-126.04,100.55,146.12c7.96,11.35,11.2,16.01,16.93,25.32h3.23c-.75-16.88-.75-28.82-.75-41.04V56.76c0-16.01.25-39.29.75-52.1Z"/>
      <path class="cls-1" d="M903.41,191.24v-88.49h21.9c16.92,0,30.11.29,37.83.87v-14.55c-7.72.58-20.91.87-37.83.87h-21.9V17.17h21.4c17.17,0,34.1.29,41.81,1.17V3.78c-7.71.58-24.64.88-41.81.88h-35.59c.5,8.73,1,31.73,1,51.81v95.47c0,13.1-.5,36.1-1,52.1h37.58c17.17,0,34.35.29,41.82.87v-14.55c-7.47.58-24.64.87-41.82.87h-23.39Z"/>
      <path class="cls-1" d="M1076.63,167.08L1041.54.87h-4.73l-39.82,150.49c-5.72,21.25-11.7,43.37-14.43,52.69h20.16c1.99-11.35,5.48-25.32,9.71-42.5l25.89-106.53,30.11,151.65h5.23l77.15-151.36-9.46,107.41c-1.5,20.38-2.99,32.02-4.23,41.33h21.65c-.25-13.68-.25-25.62,1.24-46.28L1169.96.87h-5.48l-87.86,166.2Z"/>
      <path class="cls-1" d="M1279.22,1.17c-48.04,0-86.61,46.28-86.61,103.04s38.58,103.04,86.61,103.04,87.11-46.28,87.11-103.04S1327.5,1.17,1279.22,1.17ZM1279.22,194.15c-40.32,0-73.17-40.17-73.17-89.94s32.85-89.65,73.17-89.65,73.67,40.17,73.67,89.65-33.1,89.94-73.67,89.94Z"/>
      <path class="cls-1" d="M1483.29,61.13c0-32.6-19.66-56.47-56-56.47h-28.62c.5,8.73,1,32.31,1,52.1v97.51c0,19.79-.5,40.75-1,49.77h14.69c-.75-9.02-.75-29.98-.75-49.77v-35.8h15.93c3.23,0,6.22-.29,9.46-.88,16.43,30.85,36.58,62.87,51.77,86.45h18.67c-18.67-21.25-41.07-62.87-58.74-89.36,17.17-6.11,33.6-22.7,33.6-53.56ZM1429.78,106.53h-17.17V16.88h14.19c29.12,0,43.06,21.25,43.06,44.53,0,27.36-17.17,45.12-40.07,45.12Z"/>
      <path class="cls-1" d="M1594.04.87h-3.98l-57.24,158.93c-5.72,16.01-11.7,31.73-17.42,44.24h15.93c1.74-7.57,59.98-174.06,59.98-174.06,0,0,58.24,164.75,60.97,174.06h17.17c-5.47-11.94-11.95-28.23-17.92-44.24L1594.04.87Z"/>
      <path class="cls-1" d="M1704.78,191.24v-88.49h21.9c16.92,0,30.11.29,37.83.87v-14.55c-7.72.58-20.91.87-37.83.87h-21.9V17.17h21.4c17.17,0,34.1.29,41.81,1.17V3.78c-7.72.58-24.64.88-41.81.88h-35.59c.5,8.73,1,31.73,1,51.81v95.47c0,13.1-.5,36.1-1,52.1h37.58c17.17,0,34.35.29,41.81.87v-14.55c-7.47.58-24.64.87-41.81.87h-23.39Z"/>
      <path class="cls-1" d="M1810.56,50.07c0-24.16,13.69-37.26,32.35-37.26,15.18,0,27.38,5.82,30.86,18.92V6.7c-9.95-1.75-17.92-6.11-30.86-6.11-25.63,0-45.54,18.34-45.54,50.94,0,57.92,66.45,56.18,66.45,103.91,0,23.58-12.44,40.46-33.35,40.46-17.42,0-32.61-9.31-38.08-21.25v25.91c12.44,2.62,21.9,7.86,37.58,7.86,28.62,0,47.79-22.99,47.79-54.43,0-57.92-67.2-56.76-67.2-103.91Z"/>
    </g>
  </g>
</svg>